<?xml version="1.0" encoding="utf-8"?>
<!-- Generator: Adobe Illustrator 17.0.0, SVG Export Plug-In . SVG Version: 6.00 Build 0)  -->
<!DOCTYPE svg PUBLIC "-//W3C//DTD SVG 1.1//EN" "http://www.w3.org/Graphics/SVG/1.1/DTD/svg11.dtd">
<svg version="1.1" id="Layer_1" xmlns="http://www.w3.org/2000/svg" xmlns:xlink="http://www.w3.org/1999/xlink" x="0px" y="0px"
	 width="500px" height="500px" viewBox="0 0 500 500" enable-background="new 0 0 500 500" xml:space="preserve">
<polygon fill="#AFBBD0" points="326.509,444 173.492,444 181,383 319,383 "/>
<polygon fill="#96A5B9" points="320.354,394 319,383 181,383 179.646,394 "/>
<rect x="226" y="341" fill="#96A5B9" width="44" height="33"/>
<rect x="23" y="59.75" fill="#2D4155" width="452.357" height="250.284"/>
<path fill="#BEC8DC" d="M0,366.378c0,9.523,7.72,17.237,17.242,17.237h465.516c9.521,0,17.237-7.715,17.237-17.237v-34.485H0
	V366.378z M250,344.826c7.142,0,12.932,5.789,12.932,12.931c0,7.139-5.795,12.932-12.932,12.932
	c-7.144,0-12.932-5.793-12.932-12.932C237.068,350.614,242.857,344.826,250,344.826L250,344.826z M250,344.826"/>
<path fill="#96A5B9" d="M262.932,357.757c0,7.144-5.795,12.932-12.932,12.932c-7.144,0-12.932-5.789-12.932-12.932
	c0-7.142,5.789-12.931,12.932-12.931C257.138,344.826,262.932,350.614,262.932,357.757L262.932,357.757z M262.932,357.757"/>
<path fill="#1380B6" d="M24.25,64.698v241.018h236.61c11.813,0,21.094-11.505,21.094-25.568V64.698H24.25z M24.25,64.698"/>
<g>
	<g>
		
			<rect x="371.268" y="84.382" transform="matrix(-0.9138 -0.4062 0.4062 -0.9138 669.8818 422.0137)" fill="#E4EAF6" width="16.916" height="111.069"/>
		<polygon fill="#E4EAF6" points="333.657,173.387 306.877,139.911 333.657,106.434 346.866,117.002 328.539,139.911 
			346.866,162.819 		"/>
	</g>
	<g>
		<polygon fill="#E4EAF6" points="425.806,173.387 412.597,162.819 430.924,139.911 412.597,117.002 425.806,106.434 
			452.586,139.911 		"/>
		<polygon fill="#E4EAF6" points="394.557,85.729 379.731,119.086 379.731,160.735 410.014,92.599 		"/>
	</g>
</g>
<path fill="#E4EAF6" d="M453.489,231.4c0,1.958-1.587,3.545-3.545,3.545H308.719c-1.958,0-3.545-1.587-3.545-3.545l0,0
	c0-1.958,1.587-3.545,3.545-3.545h141.225C451.902,227.855,453.489,229.442,453.489,231.4L453.489,231.4z"/>
<path fill="#E4EAF6" d="M453.489,247.269c0,1.958-1.587,3.545-3.545,3.545H308.719c-1.958,0-3.545-1.587-3.545-3.545l0,0
	c0-1.958,1.587-3.545,3.545-3.545h141.225C451.902,243.724,453.489,245.311,453.489,247.269L453.489,247.269z"/>
<path fill="#E4EAF6" d="M453.489,278.967c0,1.958-1.587,3.545-3.545,3.545H308.719c-1.958,0-3.545-1.587-3.545-3.545l0,0
	c0-1.958,1.587-3.545,3.545-3.545h141.225C451.902,275.423,453.489,277.01,453.489,278.967L453.489,278.967z"/>
<path fill="#F95428" d="M350.035,215.947c0-1.938-1.571-3.51-3.51-3.51h-37.842c-1.938,0-3.51,1.571-3.51,3.51l0,0
	c0,1.938,1.571,3.51,3.51,3.51h37.842C348.464,219.456,350.035,217.885,350.035,215.947L350.035,215.947z"/>
<path fill="#E4EAF6" d="M453.489,215.947c0,1.938-1.571,3.51-3.51,3.51h-91.247c-1.938,0-3.51-1.571-3.51-3.51l0,0
	c0-1.938,1.571-3.51,3.51-3.51h91.247C451.918,212.437,453.489,214.009,453.489,215.947L453.489,215.947z"/>
<path fill="#A8F72B" d="M350.035,263.249c0-1.938-1.571-3.51-3.51-3.51h-37.842c-1.938,0-3.51,1.571-3.51,3.51l0,0
	c0,1.938,1.571,3.51,3.51,3.51h37.842C348.464,266.758,350.035,265.187,350.035,263.249L350.035,263.249z"/>
<path fill="#E4EAF6" d="M453.489,263.249c0,1.938-1.571,3.51-3.51,3.51h-91.247c-1.938,0-3.51-1.571-3.51-3.51l0,0
	c0-1.938,1.571-3.51,3.51-3.51h91.247C451.918,259.739,453.489,261.311,453.489,263.249L453.489,263.249z"/>
<g>
	<path fill="#E4EAF6" d="M272.018,163.235c0.025-0.125,0.025-0.235,0.039-0.346c0-0.139,0-0.282-0.014-0.421
		c-0.014-0.125-0.025-0.235-0.054-0.346c-0.029-0.139-0.071-0.278-0.125-0.406c-0.029-0.068-0.029-0.139-0.057-0.207
		c-0.029-0.043-0.071-0.085-0.096-0.125c-0.029-0.057-0.029-0.1-0.057-0.153l-28.517-45.63c-0.139-0.21-0.292-0.388-0.46-0.556
		c-0.014,0-0.014,0-0.014,0c-0.25-0.239-0.528-0.406-0.848-0.531c-0.043-0.029-0.071-0.053-0.111-0.068
		c-0.028-0.014-0.057-0.014-0.1-0.014c-0.278-0.096-0.585-0.168-0.891-0.168H132.358c-0.307,0-0.599,0.071-0.891,0.153
		c-0.029,0.014-0.057,0.014-0.086,0.014c-0.039,0.029-0.068,0.053-0.111,0.068c-0.292,0.128-0.57,0.282-0.82,0.503
		c-0.014,0.014-0.029,0.029-0.043,0.043c-0.182,0.153-0.335,0.346-0.474,0.556l-28.517,45.63c-0.029,0.039-0.043,0.096-0.054,0.153
		c-0.029,0.039-0.071,0.082-0.1,0.125c-0.029,0.068-0.029,0.139-0.054,0.207c-0.057,0.128-0.1,0.267-0.128,0.406
		c-0.025,0.111-0.053,0.221-0.068,0.346C101,162.607,101,162.75,101,162.889c0.014,0.111,0.014,0.221,0.043,0.346
		c0.014,0.139,0.054,0.264,0.096,0.406c0.043,0.111,0.082,0.221,0.139,0.317c0.014,0.057,0.028,0.114,0.057,0.168
		c0.039,0.086,0.111,0.139,0.168,0.225c0.039,0.053,0.068,0.125,0.111,0.182l82.666,102.621c0,0.014,0.014,0.014,0.014,0.014
		l0.014,0.025c0.014,0.014,0.029,0.014,0.029,0.029c0.235,0.278,0.527,0.488,0.848,0.67c0.086,0.039,0.167,0.082,0.253,0.111
		c0.346,0.153,0.709,0.25,1.098,0.25c0.321,0,0.642-0.054,0.977-0.168c0.039-0.025,0.082-0.053,0.125-0.082
		c0.139-0.057,0.264-0.153,0.388-0.239c0.225-0.139,0.417-0.278,0.585-0.456c0.043-0.043,0.096-0.071,0.139-0.114l82.695-102.66
		c0.057-0.057,0.071-0.128,0.114-0.182c0.053-0.086,0.125-0.139,0.168-0.225c0.025-0.054,0.039-0.111,0.068-0.168
		c0.043-0.096,0.086-0.207,0.125-0.317C271.961,163.498,272.004,163.374,272.018,163.235L272.018,163.235z M192.524,119.975h44.083
		l-13.856,37.189L192.524,119.975z M217.616,159.894h-62.159l31.08-38.252L217.616,159.894z M150.109,157.414l-13.684-37.439h44.108
		L150.109,157.414z M219.605,165.601l-33.571,90.131l-32.944-90.131H219.605z M241.356,123.539l22.724,36.355h-36.259
		L241.356,123.539z M131.673,123.578l13.271,36.316h-35.967L131.673,123.578z M147.019,165.601l30.912,84.591l-68.144-84.591
		H147.019z M193.359,252.378l32.331-86.776h37.582L193.359,252.378z M193.359,252.378"/>
</g>
<path fill="#464655" d="M147.94,197.583c-0.038-2.955-3.538-4.492-5.738-2.518l-1.983,1.774l-22.501,20.158
	c-1.865,1.674-1.381,4.71,0.911,5.72l8.528,3.742l-7.617,17.345c-0.95,2.169,0.038,4.697,2.205,5.65
	c0.56,0.247,1.147,0.361,1.722,0.361c1.65,0,3.22-0.954,3.927-2.562l7.618-17.35l8.533,3.747c2.291,1.005,4.857-0.692,4.824-3.197
	l-0.361-27.719L147.94,197.583L147.94,197.583z M147.94,197.583"/>
<rect x="48" y="93" fill="#E4EAF6" width="34" height="190"/>
<rect x="49" y="234" fill="#96A5B9" width="30" height="42"/>
<rect x="48" y="122" fill="#96A5B9" width="30" height="25"/>
<path fill="#BEC8DC" d="M51.569,289.172h25.864c4.763,0,8.621-3.862,8.621-8.621V90.895c0-4.759-3.857-8.622-8.621-8.622H51.569
	c-4.758,0-8.621,3.862-8.621,8.622v189.656C42.948,285.31,46.81,289.172,51.569,289.172L51.569,289.172z M60.19,99.516h8.621
	c4.763,0,8.622,3.862,8.622,8.622c0,4.763-3.859,8.621-8.622,8.621H60.19c-4.76,0-8.622-3.857-8.622-8.621
	C51.569,103.378,55.431,99.516,60.19,99.516L60.19,99.516z M60.19,125.38h8.621c4.763,0,8.622,3.857,8.622,8.621
	c0,4.759-3.859,8.622-8.622,8.622H60.19c-4.76,0-8.622-3.862-8.622-8.622C51.569,129.237,55.431,125.38,60.19,125.38L60.19,125.38z
	 M60.19,151.243h8.621c4.763,0,8.622,3.857,8.622,8.622c0,4.758-3.859,8.621-8.622,8.621H60.19c-4.76,0-8.622-3.862-8.622-8.621
	C51.569,155.1,55.431,151.243,60.19,151.243L60.19,151.243z M60.19,177.102h8.621c4.763,0,8.622,3.862,8.622,8.621
	c0,4.764-3.859,8.622-8.622,8.622H60.19c-4.76,0-8.622-3.857-8.622-8.622C51.569,180.964,55.431,177.102,60.19,177.102
	L60.19,177.102z M60.19,202.965h8.621c4.763,0,8.622,3.857,8.622,8.622c0,4.758-3.859,8.621-8.622,8.621H60.19
	c-4.76,0-8.622-3.862-8.622-8.621C51.569,206.822,55.431,202.965,60.19,202.965L60.19,202.965z M51.569,246.067
	c0-4.76,3.862-8.622,8.622-8.622h8.621c4.763,0,8.622,3.862,8.622,8.622v17.242c0,4.758-3.859,8.621-8.622,8.621H60.19
	c-4.76,0-8.622-3.862-8.622-8.621V246.067z M51.569,246.067"/>
<path fill="#E4EAF6" d="M60.19,116.758h8.621c4.763,0,8.622-3.862,8.622-8.621c0-4.76-3.859-8.622-8.622-8.622H60.19
	c-4.76,0-8.622,3.862-8.622,8.622C51.569,112.901,55.431,116.758,60.19,116.758L60.19,116.758z M60.19,116.758"/>
<path fill="#96A5B9" d="M60.19,142.622h8.621c4.763,0,8.622-3.862,8.622-8.622c0-4.763-3.859-8.621-8.622-8.621H60.19
	c-4.76,0-8.622,3.857-8.622,8.621C51.569,138.76,55.431,142.622,60.19,142.622L60.19,142.622z M60.19,142.622"/>
<path fill="#E4EAF6" d="M60.19,168.48h8.621c4.763,0,8.622-3.857,8.622-8.621c0-4.76-3.859-8.622-8.622-8.622H60.19
	c-4.76,0-8.622,3.862-8.622,8.622C51.569,164.623,55.431,168.48,60.19,168.48L60.19,168.48z M60.19,168.48"/>
<path fill="#E4EAF6" d="M60.19,194.344h8.621c4.763,0,8.622-3.857,8.622-8.622c0-4.758-3.859-8.621-8.622-8.621H60.19
	c-4.76,0-8.622,3.862-8.622,8.621C51.569,190.487,55.431,194.344,60.19,194.344L60.19,194.344z M60.19,194.344"/>
<path fill="#E4EAF6" d="M60.19,220.207h8.621c4.763,0,8.622-3.862,8.622-8.621c0-4.764-3.859-8.622-8.622-8.622H60.19
	c-4.76,0-8.622,3.857-8.622,8.622C51.569,216.345,55.431,220.207,60.19,220.207L60.19,220.207z M60.19,220.207"/>
<path fill="#96A5B9" d="M60.19,271.93h8.621c4.763,0,8.622-3.862,8.622-8.621v-17.242c0-4.76-3.859-8.622-8.622-8.622H60.19
	c-4.76,0-8.622,3.862-8.622,8.622v17.242C51.569,268.067,55.431,271.93,60.19,271.93L60.19,271.93z M60.19,271.93"/>
<path fill="#464655" d="M482.758,38.793H17.242C7.72,38.793,0,46.513,0,56.035v275.858h500V56.035
	C500,46.513,492.28,38.793,482.758,38.793L482.758,38.793z M474.136,306.034H25.864V64.656h448.272V306.034z M474.136,306.034"/>
<path fill="#38BDE5" d="M255.835,43.01c-14.408,0-26.119,11.791-26.119,26.195v206.183c0-14.409,11.711-26.196,26.119-26.196
	c14.404,0,26.119,11.791,26.119,26.196V69.205C281.954,54.801,270.239,43.01,255.835,43.01L255.835,43.01z M255.835,43.01"/>
<path fill="#BEC8DC" d="M172.414,441.965c-4.763,0-8.621,3.857-8.621,8.621c0,4.759,3.857,8.622,8.621,8.622h155.172
	c4.759,0,8.622-3.862,8.622-8.622c0-4.763-3.862-8.621-8.622-8.621H172.414z M172.414,441.965"/>
</svg>
